<svg width="20" height="21" viewBox="0 0 20 21" fill="none" xmlns="http://www.w3.org/2000/svg">
<path fill-rule="evenodd" clip-rule="evenodd" d="M18.3333 10.4019C18.3333 15.0044 14.6025 18.7353 9.99996 18.7353C5.39746 18.7353 1.66663 15.0044 1.66663 10.4019C1.66663 5.79944 5.39746 2.0686 9.99996 2.0686C14.6025 2.0686 18.3333 5.79944 18.3333 10.4019ZM14.0116 8.3861C14.0752 8.29702 14.1206 8.19629 14.1453 8.08966C14.1699 7.98303 14.1733 7.87259 14.1553 7.76464C14.1373 7.65669 14.0982 7.55335 14.0402 7.46052C13.9822 7.36769 13.9065 7.28719 13.8175 7.2236C13.7284 7.16002 13.6276 7.11461 13.521 7.08996C13.4144 7.0653 13.3039 7.06189 13.196 7.07993C13.088 7.09796 12.9847 7.13707 12.8919 7.19504C12.799 7.25301 12.7185 7.32869 12.655 7.41777L9.05996 12.4511L7.25579 10.6461C7.09862 10.4943 6.88812 10.4103 6.66963 10.4122C6.45113 10.4141 6.24212 10.5017 6.08761 10.6563C5.9331 10.8108 5.84546 11.0198 5.84356 11.2383C5.84167 11.4568 5.92566 11.6673 6.07746 11.8244L8.57746 14.3244C8.66304 14.4099 8.7662 14.4757 8.87976 14.5173C8.99333 14.5588 9.11458 14.5752 9.2351 14.5652C9.35563 14.5552 9.47253 14.5191 9.5777 14.4594C9.68287 14.3997 9.77378 14.3178 9.84413 14.2194L14.0116 8.3861Z" fill="#0DBC16"/>
</svg>
